<svg width="351" height="351" viewBox="0 0 351 351" fill="none" xmlns="http://www.w3.org/2000/svg">
<circle cx="176" cy="176" r="158" stroke="#CEB28C" stroke-width="10"/>
<path d="M182.126 122.045V122.046C188.943 144.515 206.531 162.058 228.952 168.873H228.954L250.786 175.5L228.954 182.126C206.485 188.943 188.942 206.531 182.127 228.952V228.954L175.5 250.786L168.873 228.954V228.952L168.546 227.904C161.509 205.984 144.163 188.834 122.037 182.163H122.036L100.187 175.53L122.045 168.873L122.046 168.874C144.515 162.057 162.058 144.469 168.873 122.048V122.046L175.5 100.213L182.126 122.045Z" stroke="#CDAD88" stroke-width="10"/>
<ellipse cx="175.5" cy="334" rx="10.5" ry="17" fill="#CEB28C"/>
<ellipse cx="175.5" cy="17" rx="10.5" ry="17" fill="#CEB28C"/>
<ellipse cx="17" cy="176.5" rx="10.5" ry="17" transform="rotate(90 17 176.5)" fill="#CEB28C"/>
<ellipse cx="334" cy="176.5" rx="10.5" ry="17" transform="rotate(90 334 176.5)" fill="#CEB28C"/>
<path d="M46 136C46.4379 133.935 47.0109 131.873 47.6658 129.836C53.7528 111.669 64.7102 95.606 78.1455 82.4307C91.6585 69.2233 108.069 59.1216 125.979 52.2033C127.962 51.4343 129.944 50.7069 132 50C129.873 50.4499 127.812 50.9361 125.745 51.4803C107.081 56.3515 89.3359 65.8757 75.3531 79.5667C61.429 93.1833 50.9666 110.683 46.9304 129.644C46.502 131.763 46.174 133.896 46 136Z" fill="#CEB28C"/>
<path d="M299 214C298.562 216.065 297.989 218.127 297.334 220.164C291.247 238.331 280.29 254.394 266.855 267.569C253.341 280.777 236.931 290.878 219.021 297.797C217.038 298.566 215.056 299.293 213 300C215.127 299.55 217.188 299.064 219.255 298.52C237.919 293.648 255.664 284.124 269.647 270.433C283.571 256.817 294.033 239.317 298.07 220.356C298.498 218.237 298.826 216.104 299 214Z" fill="#CEB28C"/>
<path d="M213 50C215.065 50.4379 217.127 51.0109 219.164 51.6657C237.331 57.7528 253.394 68.7102 266.569 82.1455C279.777 95.6585 289.878 112.069 296.797 129.979C297.566 131.962 298.293 133.944 299 136C298.55 133.873 298.064 131.812 297.52 129.745C292.648 111.081 283.124 93.3359 269.433 79.3531C255.817 65.429 238.317 54.9666 219.356 50.9304C217.237 50.502 215.104 50.174 213 50Z" fill="#CEB28C"/>
<path d="M132 300C129.935 299.562 127.873 298.989 125.836 298.334C107.669 292.247 91.606 281.29 78.4307 267.855C65.2233 254.341 55.1216 237.931 48.2033 220.021C47.4343 218.038 46.707 216.056 46 214C46.4499 216.127 46.9361 218.188 47.4804 220.255C52.3515 238.919 61.8757 256.664 75.5667 270.647C89.1833 284.571 106.683 295.033 125.644 299.07C127.763 299.498 129.896 299.826 132 300Z" fill="#CEB28C"/>
</svg>
