<svg width="1018" height="220" viewBox="0 0 1018 220" fill="none" xmlns="http://www.w3.org/2000/svg">
<g clip-path="url(#clip0_5593_199)">
<rect width="1018" height="220" rx="15" fill="url(#paint0_linear_5593_199)"/>
<rect width="1018" height="220" rx="15" fill="url(#paint1_linear_5593_199)" fill-opacity="0.2"/>
<line x1="334.5" y1="24.5" x2="334.5" y2="195.5" stroke="#242424" stroke-opacity="0.97"/>
<line x1="684.5" y1="24.5" x2="684.5" y2="195.5" stroke="#242424" stroke-opacity="0.97"/>
<g filter="url(#filter0_f_5593_199)">
<g filter="url(#filter1_d_5593_199)">
<path d="M9.88477 6.07434C9.88477 6.07434 82.3866 81.2387 145.905 98.9615C187.336 110.521 213.363 98.7672 255.79 106.249C320.395 117.643 348.503 152.772 413.432 162.085C468.99 170.054 500.671 150.413 556.247 158.244C615.932 166.655 642.535 199.023 702.336 206.472C769.286 214.811 872.486 190.025 872.486 190.025" stroke="url(#paint2_linear_5593_199)" stroke-opacity="0.5" shape-rendering="crispEdges"/>
</g>
<path d="M9.71436 7.05969C9.71436 7.05969 82.2162 82.2241 145.735 99.9468C187.165 111.507 213.193 99.7526 255.62 107.235C320.225 118.628 348.333 153.757 413.262 163.07C468.819 171.04 500.5 151.398 556.076 159.23C615.762 167.641 642.364 200.008 702.165 207.457C769.116 215.796 872.316 191.01 872.316 191.01" stroke="url(#paint3_linear_5593_199)" stroke-width="2"/>
<g filter="url(#filter2_d_5593_199)">
<path d="M9.54395 8.04504C9.54395 8.04504 82.1696 82.4942 145.701 100.14C187.141 111.65 213.136 100.081 255.563 107.562C320.169 118.953 348.337 153.736 413.262 163.071C468.816 171.059 500.447 151.705 556.02 159.557C615.702 167.99 642.359 200.04 702.154 207.522C769.098 215.899 872.214 191.599 872.214 191.599" stroke="url(#paint4_linear_5593_199)" stroke-opacity="0.5" shape-rendering="crispEdges"/>
</g>
<g filter="url(#filter3_d_5593_199)">
<path d="M9.54395 8.04504C9.54395 8.04504 82.1696 82.4942 145.701 100.14C187.141 111.65 213.136 100.081 255.563 107.562C320.169 118.953 348.337 153.736 413.262 163.071C468.816 171.059 500.447 151.705 556.02 159.557C615.702 167.99 642.359 200.04 702.154 207.522C769.098 215.899 872.214 191.599 872.214 191.599" stroke="url(#paint5_linear_5593_199)" stroke-opacity="0.5" shape-rendering="crispEdges"/>
</g>
<g filter="url(#filter4_d_5593_199)">
<path d="M9.54395 8.04504C9.54395 8.04504 82.1696 82.4942 145.701 100.14C187.141 111.65 213.136 100.081 255.563 107.562C320.169 118.953 348.337 153.736 413.262 163.071C468.816 171.059 500.447 151.705 556.02 159.557C615.702 167.99 642.359 200.04 702.154 207.522C769.098 215.899 872.214 191.599 872.214 191.599" stroke="url(#paint6_linear_5593_199)" stroke-opacity="0.5" shape-rendering="crispEdges"/>
</g>
<g filter="url(#filter5_d_5593_199)">
<path d="M9.54395 8.04504C9.54395 8.04504 82.1696 82.4942 145.701 100.14C187.141 111.65 213.136 100.081 255.563 107.562C320.169 118.953 348.337 153.736 413.262 163.071C468.816 171.059 500.447 151.705 556.02 159.557C615.702 167.99 642.359 200.04 702.154 207.522C769.098 215.899 872.214 191.599 872.214 191.599" stroke="url(#paint7_linear_5593_199)" stroke-opacity="0.5" shape-rendering="crispEdges"/>
</g>
</g>
<g opacity="0.62" filter="url(#filter6_df_5593_199)">
<g filter="url(#filter7_d_5593_199)">
<path d="M40.1074 49.3105C40.1074 49.3105 110.112 103.5 159.979 104.545C192.505 105.226 208.409 87.3092 240.68 83.805C289.819 78.4691 318.386 105.255 367.263 97.8307C409.085 91.4778 427.173 64.5227 468.976 58.0326C513.87 51.0626 540.697 75.5654 585.445 67.6381C635.543 58.763 703.799 8.76973 703.799 8.76973" stroke="url(#paint8_linear_5593_199)" stroke-opacity="0.5" shape-rendering="crispEdges"/>
</g>
<path d="M40.2197 50.3042C40.2197 50.3042 110.225 104.494 160.091 105.539C192.617 106.22 208.521 88.3029 240.792 84.7987C289.932 79.4628 318.498 106.249 367.375 98.8244C409.198 92.4715 427.285 65.5164 469.088 59.0263C513.982 52.0563 540.809 76.5591 585.557 68.6318C635.655 59.7567 703.911 9.76342 703.911 9.76342" stroke="url(#paint9_linear_5593_199)" stroke-width="2"/>
<g filter="url(#filter8_d_5593_199)">
<path d="M40.3315 51.2979C40.3315 51.2979 110.255 104.766 160.113 105.733C192.633 106.364 208.558 88.6344 240.829 85.1286C289.968 79.7902 318.495 106.228 367.375 98.8254C409.2 92.4914 427.32 65.8258 469.125 59.3562C514.022 52.4083 540.813 76.5913 585.564 68.6974C635.666 59.8598 703.978 10.3577 703.978 10.3577" stroke="url(#paint10_linear_5593_199)" stroke-opacity="0.5" shape-rendering="crispEdges"/>
</g>
<g filter="url(#filter9_f_5593_199)">
<g filter="url(#filter10_d_5593_199)">
<path d="M41.9629 48.167C41.9629 48.167 138.792 99.3285 209.546 98.0152C255.697 97.1586 279.127 78.3917 325.113 73.3392C395.138 65.6456 434.429 91.221 504.179 81.4401C563.863 73.0708 590.823 45.1142 650.485 36.608C714.559 27.4727 751.488 50.8351 815.4 40.7444C886.952 29.4473 986.237 -24.0488 986.237 -24.0488" stroke="url(#paint11_linear_5593_199)" stroke-opacity="0.5" shape-rendering="crispEdges"/>
</g>
<path d="M42.0752 49.1607C42.0752 49.1607 138.904 100.322 209.659 99.0089C255.809 98.1523 279.239 79.3854 325.225 74.3329C395.25 66.6392 434.541 92.2147 504.292 82.4338C563.975 74.0645 590.935 46.1079 650.597 37.6016C714.671 28.4664 751.6 51.8288 815.512 41.7381C887.065 30.441 986.349 -23.0551 986.349 -23.0551" stroke="url(#paint12_linear_5593_199)" stroke-width="2"/>
<g filter="url(#filter11_d_5593_199)">
<path d="M42.187 50.1544C42.187 50.1544 138.935 100.595 209.68 99.2037C255.825 98.2966 279.276 79.717 325.262 74.6628C395.287 66.9667 434.538 92.1936 504.291 82.4348C563.977 74.0845 590.97 46.4173 650.634 37.9316C714.71 28.8184 751.604 51.861 815.519 41.8037C887.076 30.544 986.416 -22.4608 986.416 -22.4608" stroke="url(#paint13_linear_5593_199)" stroke-opacity="0.5" shape-rendering="crispEdges"/>
</g>
<g opacity="0.62" filter="url(#filter12_df_5593_199)">
<g filter="url(#filter13_d_5593_199)">
<path d="M42 39C42 39 138.749 100.701 214.087 107.333C263.227 111.659 290.373 95.6384 339.842 95.7764C415.17 95.9865 453.851 125.808 529.138 123.913C593.558 122.292 625.558 97.5362 689.972 95.7764C759.15 93.8865 795.587 121.244 864.707 118.386C942.09 115.187 1054 73.1663 1054 73.1663" stroke="url(#paint14_linear_5593_199)" stroke-opacity="0.5" shape-rendering="crispEdges"/>
</g>
<path d="M42 40C42 40 138.749 101.701 214.087 108.333C263.227 112.659 290.373 96.6384 339.842 96.7764C415.17 96.9865 453.851 126.808 529.138 124.913C593.558 123.292 625.558 98.5362 689.972 96.7764C759.15 94.8865 795.587 122.244 864.707 119.386C942.09 116.187 1054 74.1663 1054 74.1663" stroke="url(#paint15_linear_5593_199)" stroke-width="2"/>
<g filter="url(#filter14_d_5593_199)">
<path d="M42 41C42 41 138.749 101.975 214.087 108.529C263.227 112.804 290.373 96.9721 339.842 97.1085C415.17 97.3161 453.851 126.787 529.138 124.914C593.558 123.312 625.558 98.8476 689.972 97.1085C759.15 95.2407 795.587 122.276 864.707 119.453C942.09 116.291 1054 74.7644 1054 74.7644" stroke="url(#paint16_linear_5593_199)" stroke-opacity="0.5" shape-rendering="crispEdges"/>
</g>
<g filter="url(#filter15_f_5593_199)">
<g filter="url(#filter16_d_5593_199)">
<path d="M43.998 38C43.998 38 140.747 99.7006 216.085 106.333C265.225 110.659 292.372 94.6384 341.84 94.7764C417.168 94.9865 455.849 124.808 531.136 122.913C595.557 121.292 627.556 96.5362 691.971 94.7764C761.148 92.8865 797.585 120.244 866.705 117.386C944.088 114.187 1056 72.1663 1056 72.1663" stroke="url(#paint17_linear_5593_199)" stroke-opacity="0.5" shape-rendering="crispEdges"/>
</g>
<path d="M43.998 39C43.998 39 140.747 100.701 216.085 107.333C265.225 111.659 292.372 95.6384 341.84 95.7764C417.168 95.9865 455.849 125.808 531.136 123.913C595.557 122.292 627.556 97.5362 691.971 95.7764C761.148 93.8865 797.585 121.244 866.705 118.386C944.088 115.187 1056 73.1663 1056 73.1663" stroke="url(#paint18_linear_5593_199)" stroke-width="2"/>
<g filter="url(#filter17_d_5593_199)">
<path d="M43.998 40C43.998 40 140.747 100.975 216.085 107.529C265.225 111.804 292.372 95.9721 341.84 96.1085C417.168 96.3161 455.849 125.787 531.136 123.914C595.556 122.312 627.556 97.8476 691.971 96.1085C761.148 94.2407 797.585 121.276 866.705 118.453C944.088 115.291 1056 73.7644 1056 73.7644" stroke="url(#paint19_linear_5593_199)" stroke-opacity="0.5" shape-rendering="crispEdges"/>
</g>
</g>
</g>
</g>
</g>
</g>
<rect x="0.5" y="0.5" width="1017" height="219" rx="14.5" stroke="url(#paint20_linear_5593_199)" stroke-opacity="0.34"/>
<defs>
<filter id="filter0_f_5593_199" x="-34.3005" y="-17.5721" width="935.913" height="317.916" filterUnits="userSpaceOnUse" color-interpolation-filters="sRGB">
<feFlood flood-opacity="0" result="BackgroundImageFix"/>
<feBlend mode="normal" in="SourceGraphic" in2="BackgroundImageFix" result="shape"/>
<feGaussianBlur stdDeviation="11.65" result="effect1_foregroundBlur_5593_199"/>
</filter>
<filter id="filter1_d_5593_199" x="-88.1741" y="-261.972" width="1058.48" height="470.659" filterUnits="userSpaceOnUse" color-interpolation-filters="sRGB">
<feFlood flood-opacity="0" result="BackgroundImageFix"/>
<feColorMatrix in="SourceAlpha" type="matrix" values="0 0 0 0 0 0 0 0 0 0 0 0 0 0 0 0 0 0 127 0" result="hardAlpha"/>
<feOffset dy="-170"/>
<feGaussianBlur stdDeviation="48.85"/>
<feComposite in2="hardAlpha" operator="out"/>
<feColorMatrix type="matrix" values="0 0 0 0 0 0 0 0 0 0.776471 0 0 0 0 0.870588 0 0 0 1 0"/>
<feBlend mode="normal" in2="BackgroundImageFix" result="effect1_dropShadow_5593_199"/>
<feBlend mode="normal" in="SourceGraphic" in2="effect1_dropShadow_5593_199" result="shape"/>
</filter>
<filter id="filter2_d_5593_199" x="-82.813" y="-8.30341" width="1047.14" height="386.082" filterUnits="userSpaceOnUse" color-interpolation-filters="sRGB">
<feFlood flood-opacity="0" result="BackgroundImageFix"/>
<feColorMatrix in="SourceAlpha" type="matrix" values="0 0 0 0 0 0 0 0 0 0 0 0 0 0 0 0 0 0 127 0" result="hardAlpha"/>
<feOffset dy="76"/>
<feGaussianBlur stdDeviation="46"/>
<feComposite in2="hardAlpha" operator="out"/>
<feColorMatrix type="matrix" values="0 0 0 0 1 0 0 0 0 0.745098 0 0 0 0 0.345098 0 0 0 1 0"/>
<feBlend mode="normal" in2="BackgroundImageFix" result="effect1_dropShadow_5593_199"/>
<feBlend mode="normal" in="SourceGraphic" in2="effect1_dropShadow_5593_199" result="shape"/>
</filter>
<filter id="filter3_d_5593_199" x="-82.813" y="-8.30341" width="1047.14" height="386.082" filterUnits="userSpaceOnUse" color-interpolation-filters="sRGB">
<feFlood flood-opacity="0" result="BackgroundImageFix"/>
<feColorMatrix in="SourceAlpha" type="matrix" values="0 0 0 0 0 0 0 0 0 0 0 0 0 0 0 0 0 0 127 0" result="hardAlpha"/>
<feOffset dy="76"/>
<feGaussianBlur stdDeviation="46"/>
<feComposite in2="hardAlpha" operator="out"/>
<feColorMatrix type="matrix" values="0 0 0 0 1 0 0 0 0 0.745098 0 0 0 0 0.345098 0 0 0 1 0"/>
<feBlend mode="normal" in2="BackgroundImageFix" result="effect1_dropShadow_5593_199"/>
<feBlend mode="normal" in="SourceGraphic" in2="effect1_dropShadow_5593_199" result="shape"/>
</filter>
<filter id="filter4_d_5593_199" x="-82.813" y="-8.30341" width="1047.14" height="386.082" filterUnits="userSpaceOnUse" color-interpolation-filters="sRGB">
<feFlood flood-opacity="0" result="BackgroundImageFix"/>
<feColorMatrix in="SourceAlpha" type="matrix" values="0 0 0 0 0 0 0 0 0 0 0 0 0 0 0 0 0 0 127 0" result="hardAlpha"/>
<feOffset dy="76"/>
<feGaussianBlur stdDeviation="46"/>
<feComposite in2="hardAlpha" operator="out"/>
<feColorMatrix type="matrix" values="0 0 0 0 1 0 0 0 0 0.745098 0 0 0 0 0.345098 0 0 0 1 0"/>
<feBlend mode="normal" in2="BackgroundImageFix" result="effect1_dropShadow_5593_199"/>
<feBlend mode="normal" in="SourceGraphic" in2="effect1_dropShadow_5593_199" result="shape"/>
</filter>
<filter id="filter5_d_5593_199" x="-82.813" y="-8.30341" width="1047.14" height="386.082" filterUnits="userSpaceOnUse" color-interpolation-filters="sRGB">
<feFlood flood-opacity="0" result="BackgroundImageFix"/>
<feColorMatrix in="SourceAlpha" type="matrix" values="0 0 0 0 0 0 0 0 0 0 0 0 0 0 0 0 0 0 127 0" result="hardAlpha"/>
<feOffset dy="76"/>
<feGaussianBlur stdDeviation="46"/>
<feComposite in2="hardAlpha" operator="out"/>
<feColorMatrix type="matrix" values="0 0 0 0 1 0 0 0 0 0.745098 0 0 0 0 0.345098 0 0 0 1 0"/>
<feBlend mode="normal" in2="BackgroundImageFix" result="effect1_dropShadow_5593_199"/>
<feBlend mode="normal" in="SourceGraphic" in2="effect1_dropShadow_5593_199" result="shape"/>
</filter>
<filter id="filter6_df_5593_199" x="17.5084" y="-80.0995" width="1060.94" height="234.465" filterUnits="userSpaceOnUse" color-interpolation-filters="sRGB">
<feFlood flood-opacity="0" result="BackgroundImageFix"/>
<feColorMatrix in="SourceAlpha" type="matrix" values="0 0 0 0 0 0 0 0 0 0 0 0 0 0 0 0 0 0 127 0" result="hardAlpha"/>
<feOffset dy="4"/>
<feGaussianBlur stdDeviation="10.85"/>
<feComposite in2="hardAlpha" operator="out"/>
<feColorMatrix type="matrix" values="0 0 0 0 0 0 0 0 0 0 0 0 0 0 0 0 0 0 0.25 0"/>
<feBlend mode="normal" in2="BackgroundImageFix" result="effect1_dropShadow_5593_199"/>
<feBlend mode="normal" in="SourceGraphic" in2="effect1_dropShadow_5593_199" result="shape"/>
<feGaussianBlur stdDeviation="11.05" result="effect2_foregroundBlur_5593_199"/>
</filter>
<filter id="filter7_d_5593_199" x="-57.8978" y="-259.333" width="859.691" height="364.397" filterUnits="userSpaceOnUse" color-interpolation-filters="sRGB">
<feFlood flood-opacity="0" result="BackgroundImageFix"/>
<feColorMatrix in="SourceAlpha" type="matrix" values="0 0 0 0 0 0 0 0 0 0 0 0 0 0 0 0 0 0 127 0" result="hardAlpha"/>
<feOffset dy="-170"/>
<feGaussianBlur stdDeviation="48.85"/>
<feComposite in2="hardAlpha" operator="out"/>
<feColorMatrix type="matrix" values="0 0 0 0 0 0 0 0 0 0.776471 0 0 0 0 0.870588 0 0 0 1 0"/>
<feBlend mode="normal" in2="BackgroundImageFix" result="effect1_dropShadow_5593_199"/>
<feBlend mode="normal" in="SourceGraphic" in2="effect1_dropShadow_5593_199" result="shape"/>
</filter>
<filter id="filter8_d_5593_199" x="-51.9712" y="-6.04672" width="848.242" height="280.297" filterUnits="userSpaceOnUse" color-interpolation-filters="sRGB">
<feFlood flood-opacity="0" result="BackgroundImageFix"/>
<feColorMatrix in="SourceAlpha" type="matrix" values="0 0 0 0 0 0 0 0 0 0 0 0 0 0 0 0 0 0 127 0" result="hardAlpha"/>
<feOffset dy="76"/>
<feGaussianBlur stdDeviation="46"/>
<feComposite in2="hardAlpha" operator="out"/>
<feColorMatrix type="matrix" values="0 0 0 0 1 0 0 0 0 0.745098 0 0 0 0 0.345098 0 0 0 1 0"/>
<feBlend mode="normal" in2="BackgroundImageFix" result="effect1_dropShadow_5593_199"/>
<feBlend mode="normal" in="SourceGraphic" in2="effect1_dropShadow_5593_199" result="shape"/>
</filter>
<filter id="filter9_f_5593_199" x="-22.2366" y="-121.699" width="1142.29" height="312.921" filterUnits="userSpaceOnUse" color-interpolation-filters="sRGB">
<feFlood flood-opacity="0" result="BackgroundImageFix"/>
<feBlend mode="normal" in="SourceGraphic" in2="BackgroundImageFix" result="shape"/>
<feGaussianBlur stdDeviation="31.85" result="effect1_foregroundBlur_5593_199"/>
</filter>
<filter id="filter10_d_5593_199" x="-55.9695" y="-292.188" width="1140.14" height="390.728" filterUnits="userSpaceOnUse" color-interpolation-filters="sRGB">
<feFlood flood-opacity="0" result="BackgroundImageFix"/>
<feColorMatrix in="SourceAlpha" type="matrix" values="0 0 0 0 0 0 0 0 0 0 0 0 0 0 0 0 0 0 127 0" result="hardAlpha"/>
<feOffset dy="-170"/>
<feGaussianBlur stdDeviation="48.85"/>
<feComposite in2="hardAlpha" operator="out"/>
<feColorMatrix type="matrix" values="0 0 0 0 0 0 0 0 0 0.776471 0 0 0 0 0.870588 0 0 0 1 0"/>
<feBlend mode="normal" in2="BackgroundImageFix" result="effect1_dropShadow_5593_199"/>
<feBlend mode="normal" in="SourceGraphic" in2="effect1_dropShadow_5593_199" result="shape"/>
</filter>
<filter id="filter11_d_5593_199" x="-50.043" y="-38.9014" width="1128.69" height="306.633" filterUnits="userSpaceOnUse" color-interpolation-filters="sRGB">
<feFlood flood-opacity="0" result="BackgroundImageFix"/>
<feColorMatrix in="SourceAlpha" type="matrix" values="0 0 0 0 0 0 0 0 0 0 0 0 0 0 0 0 0 0 127 0" result="hardAlpha"/>
<feOffset dy="76"/>
<feGaussianBlur stdDeviation="46"/>
<feComposite in2="hardAlpha" operator="out"/>
<feColorMatrix type="matrix" values="0 0 0 0 1 0 0 0 0 0.745098 0 0 0 0 0.345098 0 0 0 1 0"/>
<feBlend mode="normal" in2="BackgroundImageFix" result="effect1_dropShadow_5593_199"/>
<feBlend mode="normal" in="SourceGraphic" in2="effect1_dropShadow_5593_199" result="shape"/>
</filter>
<filter id="filter12_df_5593_199" x="19.3634" y="15.479" width="1059.09" height="136.221" filterUnits="userSpaceOnUse" color-interpolation-filters="sRGB">
<feFlood flood-opacity="0" result="BackgroundImageFix"/>
<feColorMatrix in="SourceAlpha" type="matrix" values="0 0 0 0 0 0 0 0 0 0 0 0 0 0 0 0 0 0 127 0" result="hardAlpha"/>
<feOffset dy="4"/>
<feGaussianBlur stdDeviation="10.85"/>
<feComposite in2="hardAlpha" operator="out"/>
<feColorMatrix type="matrix" values="0 0 0 0 0 0 0 0 0 0 0 0 0 0 0 0 0 0 0.25 0"/>
<feBlend mode="normal" in2="BackgroundImageFix" result="effect1_dropShadow_5593_199"/>
<feBlend mode="normal" in="SourceGraphic" in2="effect1_dropShadow_5593_199" result="shape"/>
<feGaussianBlur stdDeviation="11.05" result="effect2_foregroundBlur_5593_199"/>
</filter>
<filter id="filter13_d_5593_199" x="-55.9676" y="-229.121" width="1207.84" height="353.621" filterUnits="userSpaceOnUse" color-interpolation-filters="sRGB">
<feFlood flood-opacity="0" result="BackgroundImageFix"/>
<feColorMatrix in="SourceAlpha" type="matrix" values="0 0 0 0 0 0 0 0 0 0 0 0 0 0 0 0 0 0 127 0" result="hardAlpha"/>
<feOffset dy="-170"/>
<feGaussianBlur stdDeviation="48.85"/>
<feComposite in2="hardAlpha" operator="out"/>
<feColorMatrix type="matrix" values="0 0 0 0 0 0 0 0 0 0.776471 0 0 0 0 0.870588 0 0 0 1 0"/>
<feBlend mode="normal" in2="BackgroundImageFix" result="effect1_dropShadow_5593_199"/>
<feBlend mode="normal" in="SourceGraphic" in2="effect1_dropShadow_5593_199" result="shape"/>
</filter>
<filter id="filter14_d_5593_199" x="-50.2656" y="24.5776" width="1196.44" height="268.922" filterUnits="userSpaceOnUse" color-interpolation-filters="sRGB">
<feFlood flood-opacity="0" result="BackgroundImageFix"/>
<feColorMatrix in="SourceAlpha" type="matrix" values="0 0 0 0 0 0 0 0 0 0 0 0 0 0 0 0 0 0 127 0" result="hardAlpha"/>
<feOffset dy="76"/>
<feGaussianBlur stdDeviation="46"/>
<feComposite in2="hardAlpha" operator="out"/>
<feColorMatrix type="matrix" values="0 0 0 0 1 0 0 0 0 0.745098 0 0 0 0 0.345098 0 0 0 1 0"/>
<feBlend mode="normal" in2="BackgroundImageFix" result="effect1_dropShadow_5593_199"/>
<feBlend mode="normal" in="SourceGraphic" in2="effect1_dropShadow_5593_199" result="shape"/>
</filter>
<filter id="filter15_f_5593_199" x="-20.2386" y="-26.121" width="1140.29" height="214.821" filterUnits="userSpaceOnUse" color-interpolation-filters="sRGB">
<feFlood flood-opacity="0" result="BackgroundImageFix"/>
<feBlend mode="normal" in="SourceGraphic" in2="BackgroundImageFix" result="shape"/>
<feGaussianBlur stdDeviation="31.85" result="effect1_foregroundBlur_5593_199"/>
</filter>
<filter id="filter16_d_5593_199" x="-53.9695" y="-230.121" width="1207.84" height="353.621" filterUnits="userSpaceOnUse" color-interpolation-filters="sRGB">
<feFlood flood-opacity="0" result="BackgroundImageFix"/>
<feColorMatrix in="SourceAlpha" type="matrix" values="0 0 0 0 0 0 0 0 0 0 0 0 0 0 0 0 0 0 127 0" result="hardAlpha"/>
<feOffset dy="-170"/>
<feGaussianBlur stdDeviation="48.85"/>
<feComposite in2="hardAlpha" operator="out"/>
<feColorMatrix type="matrix" values="0 0 0 0 0 0 0 0 0 0.776471 0 0 0 0 0.870588 0 0 0 1 0"/>
<feBlend mode="normal" in2="BackgroundImageFix" result="effect1_dropShadow_5593_199"/>
<feBlend mode="normal" in="SourceGraphic" in2="effect1_dropShadow_5593_199" result="shape"/>
</filter>
<filter id="filter17_d_5593_199" x="-48.2676" y="23.5776" width="1196.44" height="268.922" filterUnits="userSpaceOnUse" color-interpolation-filters="sRGB">
<feFlood flood-opacity="0" result="BackgroundImageFix"/>
<feColorMatrix in="SourceAlpha" type="matrix" values="0 0 0 0 0 0 0 0 0 0 0 0 0 0 0 0 0 0 127 0" result="hardAlpha"/>
<feOffset dy="76"/>
<feGaussianBlur stdDeviation="46"/>
<feComposite in2="hardAlpha" operator="out"/>
<feColorMatrix type="matrix" values="0 0 0 0 1 0 0 0 0 0.745098 0 0 0 0 0.345098 0 0 0 1 0"/>
<feBlend mode="normal" in2="BackgroundImageFix" result="effect1_dropShadow_5593_199"/>
<feBlend mode="normal" in="SourceGraphic" in2="effect1_dropShadow_5593_199" result="shape"/>
</filter>
<linearGradient id="paint0_linear_5593_199" x1="770.5" y1="96.0667" x2="1575.59" y2="-405.025" gradientUnits="userSpaceOnUse">
<stop stop-color="#161616"/>
<stop offset="1" stop-color="#FF9500"/>
</linearGradient>
<linearGradient id="paint1_linear_5593_199" x1="260" y1="69.96" x2="63.8614" y2="323.339" gradientUnits="userSpaceOnUse">
<stop/>
<stop offset="0.851858" stop-color="#6FAFBA"/>
</linearGradient>
<linearGradient id="paint2_linear_5593_199" x1="2.63771" y1="47.9519" x2="683.099" y2="203.31" gradientUnits="userSpaceOnUse">
<stop stop-color="#00FFC8"/>
<stop offset="1" stop-color="#FF0004"/>
</linearGradient>
<linearGradient id="paint3_linear_5593_199" x1="2.4673" y1="48.9373" x2="870.895" y2="199.222" gradientUnits="userSpaceOnUse">
<stop stop-color="#00E3FF"/>
<stop offset="1" stop-color="#FF6F00"/>
</linearGradient>
<linearGradient id="paint4_linear_5593_199" x1="2.38215" y1="49.4299" x2="870.81" y2="199.714" gradientUnits="userSpaceOnUse">
<stop stop-color="#6FAFBA"/>
<stop offset="1" stop-color="#FFBE58"/>
</linearGradient>
<linearGradient id="paint5_linear_5593_199" x1="2.38215" y1="49.4299" x2="870.81" y2="199.714" gradientUnits="userSpaceOnUse">
<stop stop-color="#6FAFBA"/>
<stop offset="1" stop-color="#FFBE58"/>
</linearGradient>
<linearGradient id="paint6_linear_5593_199" x1="2.38215" y1="49.4299" x2="870.81" y2="199.714" gradientUnits="userSpaceOnUse">
<stop stop-color="#6FAFBA"/>
<stop offset="1" stop-color="#FFBE58"/>
</linearGradient>
<linearGradient id="paint7_linear_5593_199" x1="2.38215" y1="49.4299" x2="870.81" y2="199.714" gradientUnits="userSpaceOnUse">
<stop stop-color="#6FAFBA"/>
<stop offset="1" stop-color="#FFBE58"/>
</linearGradient>
<linearGradient id="paint8_linear_5593_199" x1="44.875" y1="91.5423" x2="569.711" y2="53.4872" gradientUnits="userSpaceOnUse">
<stop stop-color="#00FFC8"/>
<stop offset="1" stop-color="#FF0004"/>
</linearGradient>
<linearGradient id="paint9_linear_5593_199" x1="44.9873" y1="92.536" x2="704.846" y2="18.0445" gradientUnits="userSpaceOnUse">
<stop stop-color="#00E3FF"/>
<stop offset="1" stop-color="#FF6F00"/>
</linearGradient>
<linearGradient id="paint10_linear_5593_199" x1="45.043" y1="93.0328" x2="704.902" y2="18.5413" gradientUnits="userSpaceOnUse">
<stop stop-color="#6FAFBA"/>
<stop offset="1" stop-color="#FFBE58"/>
</linearGradient>
<linearGradient id="paint11_linear_5593_199" x1="46.7304" y1="90.3987" x2="794.931" y2="48.9128" gradientUnits="userSpaceOnUse">
<stop stop-color="#00FFC8"/>
<stop offset="1" stop-color="#FF0004"/>
</linearGradient>
<linearGradient id="paint12_linear_5593_199" x1="46.8427" y1="91.3924" x2="987.284" y2="-14.774" gradientUnits="userSpaceOnUse">
<stop stop-color="#00E3FF"/>
<stop offset="1" stop-color="#FF6F00"/>
</linearGradient>
<linearGradient id="paint13_linear_5593_199" x1="46.8985" y1="91.8893" x2="987.34" y2="-14.2772" gradientUnits="userSpaceOnUse">
<stop stop-color="#6FAFBA"/>
<stop offset="1" stop-color="#FFBE58"/>
</linearGradient>
<linearGradient id="paint14_linear_5593_199" x1="42" y1="81.5" x2="841.605" y2="130.309" gradientUnits="userSpaceOnUse">
<stop stop-color="#00FFC8"/>
<stop offset="1" stop-color="#FF0004"/>
</linearGradient>
<linearGradient id="paint15_linear_5593_199" x1="42" y1="82.5" x2="1054" y2="82.5" gradientUnits="userSpaceOnUse">
<stop stop-color="#00E3FF"/>
<stop offset="1" stop-color="#FF6F00"/>
</linearGradient>
<linearGradient id="paint16_linear_5593_199" x1="42" y1="83" x2="1054" y2="83" gradientUnits="userSpaceOnUse">
<stop stop-color="#6FAFBA"/>
<stop offset="1" stop-color="#FFBE58"/>
</linearGradient>
<linearGradient id="paint17_linear_5593_199" x1="43.998" y1="80.5" x2="843.603" y2="129.309" gradientUnits="userSpaceOnUse">
<stop stop-color="#00FFC8"/>
<stop offset="1" stop-color="#FF0004"/>
</linearGradient>
<linearGradient id="paint18_linear_5593_199" x1="43.998" y1="81.5" x2="1056" y2="81.5" gradientUnits="userSpaceOnUse">
<stop stop-color="#00E3FF"/>
<stop offset="1" stop-color="#FF6F00"/>
</linearGradient>
<linearGradient id="paint19_linear_5593_199" x1="43.998" y1="82" x2="1056" y2="82" gradientUnits="userSpaceOnUse">
<stop stop-color="#6FAFBA"/>
<stop offset="1" stop-color="#FFBE58"/>
</linearGradient>
<linearGradient id="paint20_linear_5593_199" x1="40" y1="184.36" x2="966.661" y2="14.5902" gradientUnits="userSpaceOnUse">
<stop stop-color="#6FAFBA"/>
<stop offset="1" stop-color="#FFBE58"/>
</linearGradient>
<clipPath id="clip0_5593_199">
<rect width="1018" height="220" rx="15" fill="white"/>
</clipPath>
</defs>
</svg>
