<svg width="52" height="17" viewBox="0 0 52 17" fill="none" xmlns="http://www.w3.org/2000/svg">
<circle cx="2.32031" cy="8.64844" r="1.6875" stroke="#00C6DE" stroke-width="1.26562"/>
<path d="M18.9086 11.8558C15.5498 11.6972 10.995 6.52017 7.99845 5.57225C5.00195 4.62432 2.95277 7.59386 2.95277 7.59386" stroke="#00C6DE" stroke-width="1.2"/>
<path d="M24.3302 10.7736C25.775 10.0785 27.4277 7.4265 28.5539 6.13872C29.6801 4.85095 30.7191 4.32888 30.7191 4.32888" stroke="white" stroke-width="1.2"/>
<path d="M45.0446 8.78176C42.1405 7.62014 40.9783 5.10332 38.2686 3.94175C35.559 2.78019 34.0098 3.33731 34.0098 3.33731" stroke="#FFBE58" stroke-width="1.2"/>
<circle cx="32.2734" cy="3.62769" r="1.6875" stroke="#FFBE58" stroke-width="1.26562"/>
<path d="M21.5156 9.07031C23.0692 9.07031 24.2578 10.2414 24.2578 11.6016C24.2578 12.9617 23.0692 14.1328 21.5156 14.1328C19.9621 14.1328 18.7734 12.9617 18.7734 11.6016C18.7734 10.2414 19.9621 9.07031 21.5156 9.07031Z" stroke="white" stroke-width="1.26562"/>
<circle cx="47.6719" cy="10.1667" r="2.74219" stroke="#C93434" stroke-width="1.26562"/>
</svg>
